<svg xmlns="http://www.w3.org/2000/svg" fill="none" viewBox="0 0 97 112">
  <path d="M43.293 111.707a1 1 0 001.414 0l6.364-6.364a1 1 0 10-1.414-1.414L44 109.586l-5.657-5.657a1 1 0 10-1.414 1.414l6.364 6.364zM43 44v67h2V44h-2z" fill="#1F1F1F"/>
  <g clip-path="url(#k-vwgTh0ma)" fill="#1F1F1F">
    <path d="M1.38 18.71l7.82 8.66 5.45-4.92 1 1.12-6.8 6.14-8.83-9.77 1.36-1.23zm23.23-.54l-8.08 4.8L9.8 11.63l7.92-4.7.77 1.3-6.41 3.8 2.12 3.56 5.09-3 .76 1.28-5.09 3 2.31 3.9 6.57-3.89.77 1.29zm4.94-1.81L25.84 5.3 21.3 6.82l-.48-1.43 10.87-3.68.48 1.42-4.62 1.58 3.71 11.07-1.71.58zm4.93-14.98l2-.36.35 1.93c.25 1.45 0 2.32-1.64 2.64l-.18-1c.77-.21.91-.51.75-1.41l-1 .17-.28-1.97zm6.11 7.41a3.61 3.61 0 004.14 3.44c2-.09 3.16-1 3.09-2.43-.06-1.21-.88-1.76-2.61-2l-2.64-.38c-2-.28-3.35-1.26-3.45-3.31-.11-2.3 1.64-3.95 4.52-4.09 3.3-.16 5.29 1.5 5.45 4.47l-1.64.16a3.24 3.24 0 00-3.72-3.23c-1.9.09-2.93 1-2.86 2.5.07 1.3.94 1.67 2.48 1.89l2.41.35c2.42.34 3.69 1.33 3.79 3.44.12 2.43-1.91 3.93-4.75 4.06-3.24.16-5.69-1.5-5.84-4.68l1.63-.19zm14.84-1.82c1-3.94 4.4-5.94 7.93-5 3.53.94 5.19 3.45 4.58 6.77l-1.71-.32A4.001 4.001 0 0063 3.48c-2.62-.67-5 .85-5.77 4-.77 3.15.57 5.6 3.32 6.3a4.002 4.002 0 005.1-2.64l-3.9-1 .35-1.38 5.5 1.39-1.6 6.31-1.6-.41.57-2.27c-1 1.48-3 1.91-5 1.41-3.59-.93-5.59-4.25-4.54-8.22zm19.14-.84l-5.33 12.06-1.67-.74L72.91 5.4l1.66.73zm-3.43 12.81l6.9-11.23 7.66 4.71-.79 1.29-6.13-3.77-2.29 3.77 4.81 3-.78 1.28-4.82-2.95-3 4.93-1.56-1.03zm11.51 8.19l8-8.47-3.48-3.3 1-1.1 8.32 7.9-1 1.09-3.54-3.35-8 8.47-1.3-1.24z"/>
  </g>
  <defs>
    <clipPath id="k-vwgTh0ma">
      <path fill="#fff" d="M0 0h96.57v29.72H0z"/>
    </clipPath>
  </defs>
</svg>
